# xmcd
#
# Track frame offsets:
#	225
#	16145
#	35470
#	50758
#	64328
#	79163
#	93150
#	106125
#	119698
#	133413
#	142980
#	158585
#	173675
#	187393
#	201603
#	218230
#
# Disc length: 3098 seconds
#
# Revision: 0
# Processed by: cddbd v1.4PL0 Copyright (c) Steve Scherf et al.
# Submitted via: audiograbber 1.80.04
#
DISCID=ef0c1710
DTITLE=Various Artist - Country Music Hall Of Fame 20th Anniversary Collection (Vol 3 
DTITLE=of 3)
DYEAR=1900
DGENRE=
TTITLE0=Willie Nelson - Always On My Mind
TTITLE1=Hank Williams Jr. - A Country Boy Can Survive
TTITLE2=Sylvia - Nobody
TTITLE3=Ricky Skaggs - Crying My Heart Out Over You
TTITLE4=Jerry Reed - She Got The Goldmine (I Got The Shaft)
TTITLE5=John Anderson - Swingin'
TTITLE6=Reba McEntire - You're The First Time I Thought About Leaving
TTITLE7=Conway Twitty - I Don't Know A Thing About Love
TTITLE8=Merle Haggard - That's The Way Love Goes
TTITLE9=George Strait - Right Or Wrong
TTITLE10=Statlers, The - Elizabeth
TTITLE11=Lee Greenwood - Dixie Road
TTITLE12=Mel DcDaniel - Baby's Got Her Blue Jeans On
TTITLE13=Randy Travis - On The Other Hand
TTITLE14=Dan Seals - Bop
TTITLE15=Moe Bandy - Till I'm Too Old To Die Young
EXTD=
EXTT0=
EXTT1=
EXTT2=
EXTT3=
EXTT4=
EXTT5=
EXTT6=
EXTT7=
EXTT8=
EXTT9=
EXTT10=
EXTT11=
EXTT12=
EXTT13=
EXTT14=
EXTT15=
PLAYORDER=
